<svg id="visual" viewBox="0 0 900 100" width="900" height="100" xmlns="http://www.w3.org/2000/svg" xmlns:xlink="http://www.w3.org/1999/xlink" version="1.1"><rect x="0" y="0" width="900" height="100" fill="#123652"></rect><path d="M0 67L21.5 68.8C43 70.7 86 74.3 128.8 75C171.7 75.7 214.3 73.3 257.2 73.8C300 74.3 343 77.7 385.8 77.8C428.7 78 471.3 75 514.2 74.2C557 73.3 600 74.7 642.8 74.2C685.7 73.7 728.3 71.3 771.2 70.5C814 69.7 857 70.3 878.5 70.7L900 71L900 0L878.5 0C857 0 814 0 771.2 0C728.3 0 685.7 0 642.8 0C600 0 557 0 514.2 0C471.3 0 428.7 0 385.8 0C343 0 300 0 257.2 0C214.3 0 171.7 0 128.8 0C86 0 43 0 21.5 0L0 0Z" fill="#123652"></path><path d="M0 61L21.5 58.5C43 56 86 51 128.8 51.5C171.7 52 214.3 58 257.2 58.8C300 59.7 343 55.3 385.8 53.3C428.7 51.3 471.3 51.7 514.2 52.2C557 52.7 600 53.3 642.8 55.3C685.7 57.3 728.3 60.7 771.2 60C814 59.3 857 54.7 878.5 52.3L900 50L900 0L878.5 0C857 0 814 0 771.2 0C728.3 0 685.7 0 642.8 0C600 0 557 0 514.2 0C471.3 0 428.7 0 385.8 0C343 0 300 0 257.2 0C214.3 0 171.7 0 128.8 0C86 0 43 0 21.5 0L0 0Z" fill="#006c76"></path><path d="M0 33L21.5 34.8C43 36.7 86 40.3 128.8 41.5C171.7 42.7 214.3 41.3 257.2 39.8C300 38.3 343 36.7 385.8 35.2C428.7 33.7 471.3 32.3 514.2 33C557 33.7 600 36.3 642.8 35.8C685.7 35.3 728.3 31.7 771.2 31.2C814 30.7 857 33.3 878.5 34.7L900 36L900 0L878.5 0C857 0 814 0 771.2 0C728.3 0 685.7 0 642.8 0C600 0 557 0 514.2 0C471.3 0 428.7 0 385.8 0C343 0 300 0 257.2 0C214.3 0 171.7 0 128.8 0C86 0 43 0 21.5 0L0 0Z" fill="#549e70"></path><path d="M0 24L21.5 22.2C43 20.3 86 16.7 128.8 15.2C171.7 13.7 214.3 14.3 257.2 14.8C300 15.3 343 15.7 385.8 15.5C428.7 15.3 471.3 14.7 514.2 15.5C557 16.3 600 18.7 642.8 19.8C685.7 21 728.3 21 771.2 20.8C814 20.7 857 20.3 878.5 20.2L900 20L900 0L878.5 0C857 0 814 0 771.2 0C728.3 0 685.7 0 642.8 0C600 0 557 0 514.2 0C471.3 0 428.7 0 385.8 0C343 0 300 0 257.2 0C214.3 0 171.7 0 128.8 0C86 0 43 0 21.5 0L0 0Z" fill="#d4c36a"></path></svg>