<svg id="visual" viewBox="0 0 900 100" width="900" height="100" xmlns="http://www.w3.org/2000/svg" xmlns:xlink="http://www.w3.org/1999/xlink" version="1.1"><rect x="0" y="0" width="900" height="100" fill="#123652"></rect><path d="M0 31L21.5 29.2C43 27.3 86 23.7 128.8 23C171.7 22.3 214.3 24.7 257.2 24.2C300 23.7 343 20.3 385.8 20.2C428.7 20 471.3 23 514.2 23.8C557 24.7 600 23.3 642.8 23.8C685.7 24.3 728.3 26.7 771.2 27.5C814 28.3 857 27.7 878.5 27.3L900 27L900 101L878.5 101C857 101 814 101 771.2 101C728.3 101 685.7 101 642.8 101C600 101 557 101 514.2 101C471.3 101 428.7 101 385.8 101C343 101 300 101 257.2 101C214.3 101 171.7 101 128.8 101C86 101 43 101 21.5 101L0 101Z" fill="#123652"></path><path d="M0 37L21.5 39.5C43 42 86 47 128.8 46.5C171.7 46 214.3 40 257.2 39.2C300 38.3 343 42.7 385.8 44.7C428.7 46.7 471.3 46.3 514.2 45.8C557 45.3 600 44.7 642.8 42.7C685.7 40.7 728.3 37.3 771.2 38C814 38.7 857 43.3 878.5 45.7L900 48L900 101L878.5 101C857 101 814 101 771.2 101C728.3 101 685.7 101 642.8 101C600 101 557 101 514.2 101C471.3 101 428.7 101 385.8 101C343 101 300 101 257.2 101C214.3 101 171.7 101 128.8 101C86 101 43 101 21.5 101L0 101Z" fill="#544775"></path><path d="M0 65L21.5 63.2C43 61.3 86 57.7 128.8 56.5C171.7 55.3 214.3 56.7 257.2 58.2C300 59.7 343 61.3 385.8 62.8C428.7 64.3 471.3 65.7 514.2 65C557 64.3 600 61.7 642.8 62.2C685.7 62.7 728.3 66.3 771.2 66.8C814 67.3 857 64.7 878.5 63.3L900 62L900 101L878.5 101C857 101 814 101 771.2 101C728.3 101 685.7 101 642.8 101C600 101 557 101 514.2 101C471.3 101 428.7 101 385.8 101C343 101 300 101 257.2 101C214.3 101 171.7 101 128.8 101C86 101 43 101 21.5 101L0 101Z" fill="#9c537d"></path><path d="M0 74L21.5 75.8C43 77.7 86 81.3 128.8 82.8C171.7 84.3 214.3 83.7 257.2 83.2C300 82.7 343 82.3 385.8 82.5C428.7 82.7 471.3 83.3 514.2 82.5C557 81.7 600 79.3 642.8 78.2C685.7 77 728.3 77 771.2 77.2C814 77.3 857 77.7 878.5 77.8L900 78L900 101L878.5 101C857 101 814 101 771.2 101C728.3 101 685.7 101 642.8 101C600 101 557 101 514.2 101C471.3 101 428.7 101 385.8 101C343 101 300 101 257.2 101C214.3 101 171.7 101 128.8 101C86 101 43 101 21.5 101L0 101Z" fill="#d3696c"></path></svg>